<svg xmlns="http://www.w3.org/2000/svg" xmlns:xlink="http://www.w3.org/1999/xlink" version="1.1" x="0px" y="0px" viewBox="0 0 100 125" enable-background="new 0 0 100 100" xml:space="preserve"><path d="M89.1,28.3H10.9c-3.3,0-5.9-2.7-5.9-5.9v-0.2c0-3.3,2.7-5.9,5.9-5.9h78.2c3.3,0,5.9,2.7,5.9,5.9v0.2  C95.1,25.7,92.4,28.3,89.1,28.3z"/><path d="M89.1,83.4H10.9c-3.3,0-5.9-2.7-5.9-5.9v-0.2c0-3.3,2.7-5.9,5.9-5.9h78.2c3.3,0,5.9,2.7,5.9,5.9v0.2  C95.1,80.8,92.4,83.4,89.1,83.4z"/><path d="M89.1,55.9H10.9C7.7,55.9,5,53.2,5,50v-0.2c0-3.3,2.7-5.9,5.9-5.9h78.2c3.3,0,5.9,2.7,5.9,5.9V50  C95.1,53.2,92.4,55.9,89.1,55.9z"/><text x="0" y="115" fill="#000000" font-size="5px" font-weight="bold" font-family="'Helvetica Neue', Helvetica, Arial-Unicode, Arial, Sans-serif">Created by Leif Michelsen</text><text x="0" y="120" fill="#000000" font-size="5px" font-weight="bold" font-family="'Helvetica Neue', Helvetica, Arial-Unicode, Arial, Sans-serif">from the Noun Project</text></svg>